<svg id="Layer_4" data-name="Layer 4" xmlns="http://www.w3.org/2000/svg" viewBox="0 0 122 32"><defs><style>.cls-1{fill:#7dc22b;}.cls-2{fill:#fff;}</style></defs><title>logo</title><path class="cls-1" d="M31.412,1.2A1.077,1.077,0,0,0,30.653.442,22.453,22.453,0,0,0,25.522.011c-6.42,0-10.27,3.449-13.145,8H5.9A3.268,3.268,0,0,0,3.231,9.663L0.157,15.836A1.782,1.782,0,0,0,0,16.505,1.5,1.5,0,0,0,1.5,18H7.948l-1.4,1.4a2.041,2.041,0,0,0,0,2.827l3.165,3.181a2.021,2.021,0,0,0,2.816,0l1.4-1.4V30.5a1.5,1.5,0,0,0,1.5,1.5,1.77,1.77,0,0,0,.666-0.157l6.14-3.086a3.276,3.276,0,0,0,1.648-2.678V19.554c4.511-2.894,7.961-6.774,7.961-13.19A22.277,22.277,0,0,0,31.412,1.2Zm-7.529,9.3A2.5,2.5,0,1,1,26.37,8V8.008A2.5,2.5,0,0,1,23.882,10.507Z" transform="translate(0)"/><path class="cls-2" d="M51.6,13.689v12.2H47.906V6.851h2.864l9.908,12.5V6.877h3.7V25.891h-3Z" transform="translate(0)"/><path class="cls-2" d="M71.685,26.16a5.31,5.31,0,0,1-1.9-.336,4.544,4.544,0,0,1-1.527-.938,4.361,4.361,0,0,1-1-1.408,4.26,4.26,0,0,1-.362-1.77,3.906,3.906,0,0,1,.442-1.837,4.2,4.2,0,0,1,1.232-1.435,6.138,6.138,0,0,1,1.887-.925,8.256,8.256,0,0,1,2.411-.335,10.346,10.346,0,0,1,1.834.161,7.489,7.489,0,0,1,1.594.456v-0.8a2.822,2.822,0,0,0-.79-2.146,3.283,3.283,0,0,0-2.343-.751,6.218,6.218,0,0,0-2.2.4,10.209,10.209,0,0,0-2.2,1.179l-1.1-2.279a10.351,10.351,0,0,1,5.838-1.8,6.836,6.836,0,0,1,4.7,1.489,5.459,5.459,0,0,1,1.674,4.3v4.372a1.268,1.268,0,0,0,.2.8,0.879,0.879,0,0,0,.656.267v3.058a7.993,7.993,0,0,1-1.58.187,2.391,2.391,0,0,1-1.566-.456,1.957,1.957,0,0,1-.682-1.207l-0.081-.778a6.2,6.2,0,0,1-2.276,1.877A6.521,6.521,0,0,1,71.685,26.16ZM72.7,23.532a4.669,4.669,0,0,0,1.727-.322,3.148,3.148,0,0,0,1.272-.858,1.292,1.292,0,0,0,.589-1.019V19.723a8.8,8.8,0,0,0-1.393-.39,7.536,7.536,0,0,0-1.446-.147,3.832,3.832,0,0,0-2.276.631,1.892,1.892,0,0,0-.883,1.6,1.918,1.918,0,0,0,.7,1.515A2.52,2.52,0,0,0,72.7,23.532Z" transform="translate(0)"/><path class="cls-2" d="M105.023,25.891h-3.588V18.007a4.183,4.183,0,0,0-.576-2.467,1.871,1.871,0,0,0-1.593-.779,3.01,3.01,0,0,0-2.009.818,4.509,4.509,0,0,0-1.338,2.132v8.18H92.331V18.007a4.183,4.183,0,0,0-.576-2.467,1.871,1.871,0,0,0-1.593-.779,3.055,3.055,0,0,0-2,.805,4.371,4.371,0,0,0-1.352,2.118v8.206H83.226V11.838h3.24v2.6A5.363,5.363,0,0,1,88.6,12.334a6.357,6.357,0,0,1,3.092-.737,3.971,3.971,0,0,1,2.731.858,3.833,3.833,0,0,1,1.232,2.118,6.076,6.076,0,0,1,2.169-2.212,5.847,5.847,0,0,1,3-.764,4.16,4.16,0,0,1,2.115.483,3.5,3.5,0,0,1,1.286,1.259,5.291,5.291,0,0,1,.629,1.771,11.622,11.622,0,0,1,.174,2.011v8.769Z" transform="translate(0)"/><path class="cls-2" d="M114.663,26.16a7.773,7.773,0,0,1-3.053-.577,6.887,6.887,0,0,1-3.815-3.875,7.419,7.419,0,0,1-.522-2.763,7.836,7.836,0,0,1,.509-2.829,6.919,6.919,0,0,1,1.473-2.333,7,7,0,0,1,2.343-1.6,7.785,7.785,0,0,1,3.093-.591,7.6,7.6,0,0,1,3.066.591,7.039,7.039,0,0,1,2.3,1.581,6.741,6.741,0,0,1,1.447,2.307,7.683,7.683,0,0,1,.5,2.735q0,0.349-.014.671a2.77,2.77,0,0,1-.066.536H111.075a4.173,4.173,0,0,0,.4,1.475,3.65,3.65,0,0,0,.831,1.1,3.572,3.572,0,0,0,1.151.7,3.77,3.77,0,0,0,1.338.242,4.131,4.131,0,0,0,2.022-.523,2.768,2.768,0,0,0,1.3-1.381l3.079,0.858a6.264,6.264,0,0,1-2.477,2.642A7.671,7.671,0,0,1,114.663,26.16Zm3.642-8.475a3.743,3.743,0,0,0-1.165-2.534,3.655,3.655,0,0,0-4.967.013,3.7,3.7,0,0,0-.79,1.1,3.882,3.882,0,0,0-.362,1.421H118.3Z" transform="translate(0)"/></svg>